<svg xmlns="http://www.w3.org/2000/svg" viewBox="0 0 188.33 638.11"><defs><style>.cls-1,.cls-2,.cls-3{fill:none;stroke:#000;stroke-miterlimit:10;}.cls-1{stroke-width:18px;}.cls-2{stroke-width:15px;}.cls-3{stroke-width:9px;}</style></defs><title>mizu_fs</title><g id="圖層_2" data-name="圖層 2"><g id="圖層_1-2" data-name="圖層 1"><g id="graphic"><path class="cls-1" d="M66.45,635.71c13.78-49.76,36-99,49.19-148.93-14.19-120.25-28.39-240.51-44-359.68C86.52,85.59,102.69,44.17,117.38,3"/><path class="cls-2" d="M153.91,279.36c-9.24-40.66-9.81-83.22-18.37-124,4.47-29.22,19-55.4,27.72-84"/><path class="cls-2" d="M145.07,616.87c11.38-34.53,21.39-66.92,34.35-102.66.38-3.52,2.05-7,1.14-10.55-2.84-9.64-3.11-19.11-4.55-29.84-1.71-32-6.26-61.84-9.35-92.79"/><path class="cls-3" d="M112.27,605.49c11.32-37.2,29.44-72.58,34.92-111.18-7-54.81-10.32-108.18-18.38-165.43-7.42-63.1-16.77-120.43-25.48-183.62l1-9.38c10.53-25.27,16.94-48.45,27.54-73.11"/><path class="cls-2" d="M16.18,572.41c11.39-34.53,21.39-66.92,34.35-102.66.38-3.51,2-6.94,1.15-10.55-2.85-9.64-3.12-19.11-4.55-29.84-1.72-32-6.27-61.84-9.35-92.79"/><path class="cls-2" d="M26,238.94C16.75,198.29,16.17,155.73,7.62,115c4.47-29.22,19-55.4,27.71-84"/><path class="cls-3" d="M48.5,585.84c11.32-37.2,29.43-72.58,34.92-111.19C76.39,419.84,73.1,366.47,65,309.23c-7.43-63.1-16.78-120.43-25.49-183.62l1-9.38C51.09,91,57.5,67.77,68.11,43.12"/></g></g></g></svg>